<svg width="32" height="33" viewBox="0 0 32 33" fill="none" xmlns="http://www.w3.org/2000/svg">
<path fill-rule="evenodd" clip-rule="evenodd" d="M16 32.9983C7.16355 32.9983 0 25.8351 0 16.9975C0 8.16227 7.16355 0.997792 16 0.997792C24.8365 0.997792 32.0001 8.16227 32.0001 16.9975C32.0001 25.8351 24.8365 32.9983 16 32.9983ZM16 3.9983C8.82032 3.9983 3.00006 9.8175 3.00006 16.9975C3.00006 24.1774 8.82032 29.9979 16 29.9979C23.1797 29.9979 29 24.1774 29 16.9975C29 9.8175 23.1797 3.9983 16 3.9983ZM16 26.4973C10.7532 26.4973 6.5 22.2445 6.5 16.9975C6.5 11.7517 10.7532 7.4977 16 7.4977C21.2467 7.4977 25.5 11.7517 25.5 16.9975C25.5 22.2445 21.2467 26.4973 16 26.4973ZM16 10.4976C12.4101 10.4976 9.49997 13.4081 9.49997 16.9975C9.49997 20.5869 12.4101 23.4986 16 23.4986C19.5898 23.4986 22.5 20.5869 22.5 16.9975C22.5 13.4081 19.5898 10.4976 16 10.4976ZM16 19.9986C14.3431 19.9986 13 18.6551 13 16.9975C13 15.3411 14.3431 13.9988 16 13.9988C17.6569 13.9988 18.9999 15.3411 18.9999 16.9975C18.9999 18.6551 17.6569 19.9986 16 19.9986Z" fill="#95E1D3"/>
</svg>
