<svg width="28" height="33" viewBox="0 0 28 33" fill="none" xmlns="http://www.w3.org/2000/svg">
<path fill-rule="evenodd" clip-rule="evenodd" d="M26.4999 17.4973H23.5C22.6717 17.4973 22 16.8267 22 15.9976V9.99782C22 9.16992 22.6717 8.49875 23.5 8.49875H26.4999C27.3284 8.49875 28 9.16992 28 9.99782V15.9976C28 16.8267 27.3284 17.4973 26.4999 17.4973ZM23.5 2.49715C23.5 1.66925 24.1715 0.998112 24.9999 0.998112C25.8284 0.998112 26.4999 1.66925 26.4999 2.49715V6.99792H23.5V2.49715ZM15.5 25.4974H12.4999C11.6716 25.4974 10.9999 24.8268 10.9999 23.9983V17.998C10.9999 17.17 11.6716 16.4977 12.4999 16.4977H15.5C16.3284 16.4977 16.9999 17.17 16.9999 17.998V23.9983C16.9999 24.8268 16.3284 25.4974 15.5 25.4974ZM12.4999 2.49715C12.4999 1.66925 13.1716 0.998112 14 0.998112C14.8284 0.998112 15.5 1.66925 15.5 2.49715V14.998H12.4999V2.49715ZM4.50002 21.4979H1.49996C0.671524 21.4979 -2.8e-05 20.8262 -2.8e-05 19.9971V13.9973C-2.8e-05 13.1694 0.671524 12.4982 1.49996 12.4982H4.50002C5.32834 12.4982 6.00001 13.1694 6.00001 13.9973V19.9971C6.00001 20.8262 5.32834 21.4979 4.50002 21.4979ZM1.49996 2.49715C1.49996 1.66925 2.17151 0.998112 2.99995 0.998112C3.82838 0.998112 4.50002 1.66925 4.50002 2.49715V10.9986H1.49996V2.49715ZM4.50002 31.4972C4.50002 32.3263 3.82838 32.998 2.99995 32.998C2.17151 32.998 1.49996 32.3263 1.49996 31.4972V22.9982H4.50002V31.4972ZM15.5 31.4972C15.5 32.3263 14.8284 32.998 14 32.998C13.1716 32.998 12.4999 32.3263 12.4999 31.4972V26.9971H15.5V31.4972ZM26.4999 31.4972C26.4999 32.3263 25.8284 32.998 24.9999 32.998C24.1715 32.998 23.5 32.3263 23.5 31.4972V18.9987H26.4999V31.4972Z" fill="#95E1D3"/>
</svg>
