<svg width="32" height="32" viewBox="0 0 32 32" fill="none" xmlns="http://www.w3.org/2000/svg">
<path fill-rule="evenodd" clip-rule="evenodd" d="M30.5 32H1.5C0.671456 32 -6.4e-05 31.3283 -6.4e-05 30.4998V1.49974C-6.4e-05 0.671232 0.671456 9.6e-05 1.5 9.6e-05H30.5C31.3285 9.6e-05 32 0.671232 32 1.49974V30.4998C32 31.3283 31.3285 32 30.5 32ZM29.0001 3H3V28.9996H29.0001V3ZM6.50006 4.49965H11.9998H12C12.8284 4.49965 13.4999 5.17139 13.4999 5.9999C13.4999 6.82838 12.8284 7.49955 12 7.49955H7.50003V11.9997C7.50003 12.8282 6.82838 13.4999 5.99994 13.4999C5.17162 13.4999 4.49997 12.8282 4.49997 11.9997V6.49997V4.49965H6.50006ZM4.49997 19.9998C4.49997 19.1713 5.17162 18.4996 5.99994 18.4996C6.82838 18.4996 7.50003 19.1713 7.50003 19.9998V24.4994H12V24.5C12.8284 24.5 13.4999 25.1711 13.4999 25.9996C13.4999 26.8281 12.8284 27.4999 12 27.4999H11.9998H6.50006H4.49997V25.4996V19.9998ZM20 4.49965H20.0001H25.5H27.5V6.49997V11.9997C27.5 12.8282 26.8283 13.4999 26 13.4999C25.1716 13.4999 24.4999 12.8282 24.4999 11.9997V7.49955H20C19.1715 7.49955 18.5 6.82838 18.5 5.9999C18.5 5.17139 19.1715 4.49965 20 4.49965ZM20 24.5V24.4994H24.4999V19.9998C24.4999 19.1713 25.1716 18.4996 26 18.4996C26.8283 18.4996 27.5 19.1713 27.5 19.9998V25.4996V27.4999H25.5H20.0001H20C19.1715 27.4999 18.5 26.8281 18.5 25.9996C18.5 25.1711 19.1715 24.5 20 24.5Z" fill="#95E1D3"/>
</svg>
