<svg width="32" height="31" viewBox="0 0 32 31" fill="none" xmlns="http://www.w3.org/2000/svg">
<path fill-rule="evenodd" clip-rule="evenodd" d="M31.9999 16.4998C31.9999 17.3284 31.3284 17.9995 30.5 17.9995C30.1048 17.9995 29.7481 17.8439 29.4802 17.5942L29.4765 17.5978L16.0382 4.1593L16.0383 4.15871L15.9999 4.12235V4.12176L2.55382 17.5686L2.55315 17.568C2.28227 17.835 1.91043 17.9995 1.50006 17.9995C0.671488 17.9995 -3.2e-05 17.3284 -3.2e-05 16.4998C-3.2e-05 16.0749 0.176992 15.6916 0.4608 15.4186L14.9188 0.960318C15.1918 0.676606 15.575 0.499565 15.9999 0.499565C16.0002 0.499565 16.0003 0.499565 16.0005 0.499565C16.0271 0.499565 16.0534 0.500185 16.0796 0.501952C16.0837 0.501952 16.0879 0.502572 16.0921 0.502572C16.1147 0.504339 16.1372 0.506137 16.1596 0.508524C16.161 0.508524 16.1625 0.508524 16.1639 0.509113C16.5311 0.549041 16.8581 0.721308 17.097 0.977027L17.0978 0.976407L23 6.87847V5.4998C23 4.6713 23.6715 3.99956 24.4999 3.99956C25.3284 3.99956 25.9999 4.6713 25.9999 5.4998V9.87837L31.5978 15.4764L31.5944 15.48C31.8441 15.7476 31.9999 16.1047 31.9999 16.4998ZM29 18.9997V23.4998V25.4995V29.4996C29 30.3281 28.3284 30.9999 27.5 30.9999H24.4999V18.9997H18.5V30.9999H4.5C3.67158 30.9999 3.00003 30.3281 3.00003 29.4996V25.4995V23.4998V18.9997L15.9999 5.9999L29 18.9997ZM13.5 18.9997H7.49997V25.0001H13.5V18.9997Z" fill="#95E1D3"/>
</svg>
