<svg width="30" height="31" viewBox="0 0 30 31" fill="none" xmlns="http://www.w3.org/2000/svg">
<path fill-rule="evenodd" clip-rule="evenodd" d="M30 24.9989C30 25.6498 29.5813 26.1994 29 26.4062V28.0894C29.5813 28.2962 30 28.8458 30 29.4979C30 30.3258 29.3283 30.9987 28.5 30.9987C27.8478 30.9987 27.2985 30.5785 27.0918 29.998H25.4082C25.2015 30.5785 24.6522 30.9987 24 30.9987C23.3478 30.9987 22.7984 30.5785 22.5919 29.998H20.9081C20.7014 30.5785 20.1521 30.9987 19.5 30.9987C18.8478 30.9987 18.2985 30.5785 18.0918 29.998H16.4082C16.2015 30.5785 15.6522 30.9987 15 30.9987C14.3478 30.9987 13.7983 30.5785 13.5918 29.998H11.9081C11.7016 30.5785 11.1521 30.9987 10.4999 30.9987C9.84786 30.9987 9.29841 30.5785 9.09186 29.998H7.40808C7.20153 30.5785 6.65208 30.9987 5.99988 30.9987C5.3478 30.9987 4.7985 30.5785 4.5918 29.998H2.90817C2.70147 30.5785 2.15217 30.9987 1.49997 30.9987C0.67164 30.9987 -3e-05 30.3258 -3e-05 29.4979C-3e-05 28.8458 0.41871 28.2962 0.99996 28.0894V26.4062C0.41871 26.1994 -3e-05 25.6498 -3e-05 24.9989C-3e-05 24.3451 0.41871 23.7967 0.99996 23.5898V21.9066C0.41871 21.6986 -3e-05 21.1503 -3e-05 20.4982C-3e-05 19.8467 0.41871 19.2966 0.99996 19.0897V17.4059C0.41871 17.2002 -3e-05 16.6507 -3e-05 15.9986C-3e-05 15.3465 0.41871 14.797 0.99996 14.589V12.9057C0.41871 12.7001 -3e-05 12.1505 -3e-05 11.4985C-3e-05 10.8458 0.41871 10.2963 0.99996 10.0906V8.40619C0.41871 8.19934 -3e-05 7.6498 -3e-05 6.99772C-3e-05 6.34624 0.41871 5.7961 0.99996 5.59045V3.90544C0.41871 3.69979 -3e-05 3.15025 -3e-05 2.49817C-3e-05 1.66906 0.67164 0.9985 1.49997 0.9985C2.15217 0.9985 2.70147 1.41634 2.90817 1.99867H4.5918C4.7985 1.41634 5.3478 0.9985 5.99988 0.9985C6.65208 0.9985 7.20153 1.41634 7.40808 1.99867H9.09186C9.29841 1.41634 9.84786 0.9985 10.4999 0.9985C11.1521 0.9985 11.7016 1.41634 11.9081 1.99867H13.5918C13.7983 1.41634 14.3478 0.9985 15 0.9985C15.6522 0.9985 16.2015 1.41634 16.4082 1.99867H18.0918C18.2985 1.41634 18.8478 0.9985 19.5 0.9985C20.1521 0.9985 20.7014 1.41634 20.9081 1.99867H22.5919C22.7984 1.41634 23.3478 0.9985 24 0.9985C24.6522 0.9985 25.2015 1.41634 25.4082 1.99867H27.0918C27.2985 1.41634 27.8478 0.9985 28.5 0.9985C29.3283 0.9985 30 1.66906 30 2.49817C30 3.15025 29.5813 3.69979 29 3.90544V5.59045C29.5813 5.7961 30 6.34624 30 6.99772C30 7.6498 29.5813 8.19934 29 8.40619V10.0906C29.5813 10.2963 30 10.8458 30 11.4985C30 12.1505 29.5813 12.7001 29 12.9057V14.589C29.5813 14.797 30 15.3465 30 15.9986C30 16.6507 29.5813 17.2002 29 17.4059V19.0897C29.5813 19.2966 30 19.8467 30 20.4982C30 21.1503 29.5813 21.6986 29 21.9066V23.5898C29.5813 23.7967 30 24.3451 30 24.9989ZM26 4.99738H4.00005V26.9981H26V4.99738ZM13 20.9977L19.9999 12.4986L24.5 19.4986V25.4984H5.4999L11.5 19.4986L13 20.9977ZM9.99996 13.9983C8.34306 13.9983 6.99999 12.6548 6.99999 10.9972C6.99999 9.34018 8.34306 7.99849 9.99996 7.99849C11.6568 7.99849 13 9.34018 13 10.9972C13 12.6548 11.6568 13.9983 9.99996 13.9983Z" fill="#95E1D3"/>
</svg>
