<svg width="32" height="32" viewBox="0 0 32 32" fill="none" xmlns="http://www.w3.org/2000/svg">
<path fill-rule="evenodd" clip-rule="evenodd" d="M30.4999 31.9998H1.49994C0.671616 31.9998 6.4e-05 31.3281 6.4e-05 30.4996V1.49955C6.4e-05 0.671648 0.671616 -9.6e-05 1.49994 -9.6e-05H30.4999C31.3284 -9.6e-05 32 0.671648 32 1.49955V30.4996C32 31.3281 31.3284 31.9998 30.4999 31.9998ZM29 2.99981H3V28.9999H29V2.99981ZM5.21536 16.2386L5.21469 16.2374L9.21462 13.7376L9.21542 13.7388C9.44371 13.5981 9.71232 13.517 9.9999 13.517C10.3113 13.517 10.6004 13.6118 10.8401 13.7745L10.846 13.7656L17.4767 18.1859L25.1149 12.7946C25.363 12.6128 25.6689 12.5055 26 12.5055C26.8283 12.5055 27.5 13.1767 27.5 14.0052C27.5 14.5053 27.255 14.9482 26.8785 15.2205L26.8789 15.2211L18.3789 21.2215L18.3785 21.2209C18.1315 21.3997 17.8281 21.5052 17.5 21.5052C17.1794 21.5052 16.8824 21.4045 16.6386 21.2329L9.9824 16.7953L6.84685 18.7551C6.60582 18.9202 6.31424 19.0173 5.99997 19.0173C5.17152 19.0173 4.5 18.3456 4.5 17.5171C4.5 16.9765 4.78634 16.5026 5.21536 16.2386Z" fill="#95E1D3"/>
</svg>
