<svg width="1533" height="1406" viewBox="0 0 1533 1406" fill="none" xmlns="http://www.w3.org/2000/svg">
<path d="M766 1302V24.3286C795 24.3286 883.728 24.3286 908 38.3286C956.755 66.4511 995.302 119.823 1018 171.329C1044 230.329 1036 301.328 1036 301.328C1036 301.328 1056.6 213.329 1018 141.329C992 92.8288 938 38.3286 938 38.3286L946.5 1.32873C946.5 1.32873 1022 -4.67129 1135 8.8287C1192.83 15.7375 1276 55.3287 1360.5 116.829C1382.55 132.876 1419.79 245.968 1453 294.829C1507.5 339.329 1532.5 357.829 1532.5 357.829C1532.5 357.829 1458.32 445.829 1415 509.329C1305.15 670.329 1153 765.5 1078 824C1067.17 843.833 838.167 893.309 820.5 1084.5C806.5 1236 902 1230 878.5 1344.5L766 1302Z" fill="#0F1A34"/>
<path d="M766.5 1302V24.3286C737.5 24.3286 648.771 24.3286 624.5 38.3286C575.745 66.4511 537.197 119.823 514.5 171.329C488.5 230.329 496.5 301.328 496.5 301.328C496.5 301.328 475.902 213.329 514.5 141.329C540.5 92.8288 594.5 38.3286 594.5 38.3286L586 1.32873C586 1.32873 510.5 -4.67129 397.5 8.8287C339.67 15.7375 256.5 55.3287 172 116.829C149.951 132.876 112.707 245.968 79.5 294.829C25 339.329 0 357.829 0 357.829C0 357.829 74.1756 445.829 117.5 509.329C227.346 670.329 379.5 765.5 454.5 824C465.333 843.833 694.332 893.309 712 1084.5C726 1236 710 1173.5 733.5 1288L766.5 1302Z" fill="#0F1A34"/>
<path fill-rule="evenodd" clip-rule="evenodd" d="M974.5 566.5L931.5 656.5L797 343.5L1005 306.5L1034.5 416L989 514.5L974.5 566.5Z" fill="#0F1A34"/>
<path fill-rule="evenodd" clip-rule="evenodd" d="M1313.64 100.621C1313.65 100.621 1313.66 100.622 1313.66 100.622C1242.88 101.057 1185.56 127.926 1148 149.422C1138.35 154.944 1131.4 160.112 1125.65 164.386C1116.39 171.265 1110.25 175.829 1101 175.829C1090.34 175.829 1079.17 159.403 1069.29 144.876C1065.27 138.969 1061.47 133.376 1058 129.329C1057.19 128.386 1056.44 127.504 1055.72 126.67C1045.83 115.12 1043.72 112.655 1015.5 81.8287C994.724 59.1341 973.498 39.0467 963.382 29.4737C960.8 27.0294 958.941 25.2704 957.999 24.3287C952.451 18.7802 950.545 9.69125 950.318 1.07612C966.973 0.0892658 1036.84 -2.89868 1135 8.8287C1154.02 11.1016 1175.79 16.9119 1199.45 25.8759C1241.57 41.8385 1289.68 67.8015 1338.95 101.599C1330.38 100.886 1321.94 100.576 1313.64 100.621Z" fill="url(#paint0_linear_81_2141)"/>
<path d="M1131.61 244.675C1147.86 146.815 1259.6 114.025 1346.57 106.881C1351.21 110.129 1355.85 113.446 1360.5 116.829C1372.25 125.378 1388.31 161.474 1405.77 200.725C1421.09 235.148 1437.48 271.999 1453 294.829C1454.07 295.707 1455.14 296.575 1456.19 297.434C1456.77 297.902 1457.34 298.367 1457.9 298.829C1509 340.44 1532.5 357.829 1532.5 357.829C1532.5 357.829 1486.36 412.572 1445.6 466.86C1434.68 481.403 1424.15 495.913 1415 509.329C1414.11 510.634 1413.22 511.933 1412.33 513.227C1386.02 551.369 1358.82 584.803 1331.63 614.396C1264.38 687.612 1197.25 737.311 1144.17 776.605L1144.17 776.607C1129.63 787.372 1116.14 797.356 1104 806.829L1075.15 827C1076.48 795.778 1076.51 747.72 1074 713.829L1073.96 713.354C1073.95 713.182 1073.94 713.009 1073.93 712.835C1070.86 670.27 1069.36 577.932 1079.4 500.66C1082.25 478.663 1086.04 457.888 1091 439.829C1105.25 387.894 1123.15 297.121 1131.5 245.329C1131.53 245.111 1131.57 244.893 1131.61 244.675Z" fill="url(#paint1_linear_81_2141)"/>
<path d="M929 791.329C909.499 734.329 942.166 704.829 960.999 700.329C965 714.829 967.927 732.829 972.5 749.329C983 787.223 1003 873.829 1072 976.829C1119.23 1047.33 1144.18 1063.25 1168 1091.83C1185.5 1112.83 1194.5 1124.48 1194.5 1130.33C1194.5 1132.33 1162.97 1123.14 1145 1112.83C1134.64 1106.89 1086.1 1083.83 1032.5 1001.33C993.039 940.592 948.5 848.329 929 791.329Z" fill="url(#paint2_linear_81_2141)"/>
<path fill-rule="evenodd" clip-rule="evenodd" d="M960.999 700.329C942.166 704.829 909.499 734.329 929 791.329C941.07 826.61 962.733 875.403 986.847 921.866L1025.23 895.959C996.081 836.643 982.947 787.969 975.061 758.744C974.142 755.337 973.293 752.193 972.5 749.329C970.128 740.77 968.199 731.809 966.333 723.141C964.602 715.098 962.925 707.308 960.999 700.329Z" fill="white"/>
<path fill-rule="evenodd" clip-rule="evenodd" d="M558.5 566.5L601.5 656.5L736 343.5L528 306.5L498.5 416L544 514.5L558.5 566.5Z" fill="#0F1A34"/>
<path fill-rule="evenodd" clip-rule="evenodd" d="M582.18 1.07612C582.172 1.40011 582.161 1.72477 582.147 2.04989C581.805 10.3699 579.839 18.9889 574.499 24.3287C573.558 25.2704 571.699 27.0292 569.116 29.4735C559.001 39.0466 537.775 59.1343 516.999 81.8287C488.78 112.655 486.668 115.12 476.777 126.67C476.063 127.504 475.308 128.386 474.499 129.329C471.03 133.376 467.227 138.969 463.21 144.876C453.332 159.403 442.163 175.829 431.499 175.829C422.247 175.829 416.107 171.265 406.851 164.386C401.101 160.112 394.148 154.944 384.499 149.422C346.94 127.926 289.62 101.057 218.836 100.622C218.843 100.622 218.85 100.621 218.857 100.621C210.559 100.576 202.115 100.886 193.545 101.599C242.814 67.8015 290.925 41.8385 333.05 25.8759C334.094 25.4804 335.134 25.091 336.17 24.7078C358.621 16.4061 379.313 11.0013 397.499 8.8287C495.662 -2.89867 565.526 0.0892655 582.18 1.07612Z" fill="url(#paint3_linear_81_2141)"/>
<path d="M400.944 244.99C400.927 244.885 400.91 244.78 400.892 244.675C384.637 146.815 272.896 114.025 185.927 106.881C181.291 110.129 176.647 113.446 171.999 116.829C160.252 125.378 144.192 161.474 126.727 200.725C111.411 235.148 95.0145 271.999 79.4993 294.829C78.4236 295.707 77.3593 296.575 76.3064 297.434C75.7322 297.902 75.1614 298.367 74.594 298.829C23.4973 340.44 -0.000732422 357.829 -0.000732422 357.829C-0.000732422 357.829 74.1749 445.829 117.499 509.329C118.39 510.634 119.281 511.933 120.173 513.227C151.46 558.595 184.02 597.302 216.304 630.806C278.316 695.162 339.313 740.32 388.325 776.605L388.328 776.607C402.869 787.372 416.355 797.356 428.499 806.829L457.311 826C456.566 808.074 456.25 784.828 456.584 761.935C456.833 744.93 457.441 728.12 458.499 713.829C461.294 676.105 462.868 597.385 455.892 525.402C452.882 494.346 448.281 464.544 441.499 439.829C439.718 433.337 437.88 426.238 436.01 418.685C422.924 365.81 408.309 290.647 400.999 245.329C400.981 245.216 400.963 245.103 400.944 244.99Z" fill="url(#paint4_linear_81_2141)"/>
<path fill-rule="evenodd" clip-rule="evenodd" d="M864.625 919.8C868.436 892.961 872.891 865.563 877.612 840H878.052C881.536 821.113 885.167 803.22 888.791 787.286C893.662 765.875 898.521 748.001 902.999 736C919.606 691.5 960.499 683 960.499 683L910.499 538.5C864.999 413.808 872.499 344.172 945.999 344.172C1019.5 344.172 1013.03 405.861 1005 434.172C998.291 457.809 981.653 471.014 970.299 480.024C968.055 481.805 966.017 483.422 964.303 484.924C961.116 487.716 958.674 489.856 957.499 491.5C944.704 509.414 970.999 574 970.999 574C970.999 574 983.499 552.5 994.999 538.5C1006.5 524.5 1053.68 462 1049 408.5C1045.5 368.5 1036.5 301 1036.5 301C1036.5 301 1044.5 230 1018.5 171C995.802 119.495 957.255 66.1225 908.499 38C884.228 24 795.499 24 766.499 24V24.3284C737.499 24.3284 648.771 24.3284 624.499 38.3284C575.744 66.4508 537.197 119.823 514.499 171.328C488.499 230.328 496.499 301.328 496.499 301.328C496.499 301.328 487.499 368.829 483.999 408.829C479.318 462.329 526.499 524.829 537.999 538.829C549.499 552.829 561.999 574.329 561.999 574.329C561.999 574.329 588.295 509.743 575.499 491.829C574.325 490.185 571.882 488.044 568.695 485.252C566.981 483.751 564.943 482.133 562.699 480.352C551.346 471.342 534.707 458.137 527.999 434.5C519.965 406.19 513.499 344.5 586.999 344.5C660.499 344.5 667.999 414.136 622.499 538.829L572.499 683.329C572.499 683.329 613.392 691.829 629.999 736.329C634.478 748.329 639.337 766.204 644.207 787.614C652.719 825.036 661.266 873.258 667.873 919.8L667.873 919.798C668.971 927.527 670.015 935.209 670.996 942.788L671.081 943.446C674.359 968.833 676.931 993.037 678.459 1013.91C678.855 1019.31 679.18 1024.5 679.43 1029.42C679.453 1029.89 679.477 1030.36 679.499 1030.83C679.598 1032.88 679.703 1035.02 679.813 1037.22C680.581 1052.64 681.6 1071.56 682.705 1092.07L682.705 1092.08L682.706 1092.09L682.706 1092.1L682.708 1092.13C683.617 1109.01 684.584 1126.97 685.518 1144.96C685.532 1145.22 685.546 1145.49 685.56 1145.75C685.601 1146.56 685.643 1147.36 685.685 1148.17C687.392 1181.2 688.968 1214.1 689.845 1240.33C689.901 1242.02 697.315 1283.33 710.999 1309.33C724.683 1335.33 750.499 1361.83 760.499 1369.33C763.159 1371.32 766.999 1374.83 766.999 1374.83C766.999 1374.83 767.006 1374.82 767.019 1374.8C775.949 1383.1 841.627 1440.24 889.999 1372.33C893.383 1367.58 896.05 1362.48 898.094 1357.13C912.403 1319.7 896.154 1270.05 880.999 1242.33C874.857 1231.09 869.001 1221.58 863.858 1213.83C852.671 1196.96 844.859 1188.38 844.817 1188.33C845.426 1175.44 846.095 1162.08 846.787 1148.7L846.784 1148.74C847.778 1129.5 848.817 1110.21 849.79 1092.15L849.79 1092.14L849.791 1092.12L849.792 1092.11L849.793 1092.09L849.793 1092.08L849.794 1092.07C851.057 1068.62 852.207 1047.27 852.999 1030.83C854.441 1000.92 858.773 961.018 864.625 919.798L864.625 919.8ZM851.429 1254.68C859.663 1269.7 865.499 1296.33 865.499 1312.83C865.499 1319.11 863.655 1322.82 860.999 1323.89C854.36 1326.57 842.649 1312.8 841.999 1281.83C841.813 1272.97 842.032 1259.97 842.524 1244.33C845.674 1245.95 848.685 1249.67 851.429 1254.68Z" fill="url(#paint5_linear_81_2141)"/>
<path d="M612.499 451.829V442.829C580.499 436.829 557.499 402.829 557.499 402.829L550.999 401.329C550.999 401.329 557.499 445.829 612.499 451.829Z" fill="white"/>
<path fill-rule="evenodd" clip-rule="evenodd" d="M547.536 401.835L550.999 401.329C547.536 401.835 547.536 401.837 547.536 401.839L547.537 401.845L547.539 401.859L547.546 401.899C547.551 401.932 547.558 401.975 547.566 402.028C547.584 402.135 547.61 402.284 547.645 402.471C547.715 402.846 547.822 403.377 547.976 404.044C548.286 405.377 548.787 407.256 549.565 409.515C551.119 414.029 553.791 420.097 558.278 426.366C567.321 438.999 583.569 452.193 612.119 455.308C613.108 455.416 614.096 455.098 614.836 454.434C615.576 453.77 615.999 452.823 615.999 451.829V442.829C615.999 441.144 614.799 439.699 613.144 439.389C598.11 436.57 584.955 427.097 575.408 418.04C570.668 413.543 566.896 409.224 564.313 406.033C563.023 404.439 562.033 403.131 561.371 402.23C561.04 401.779 560.791 401.43 560.627 401.198C560.546 401.082 560.486 400.995 560.447 400.939L560.406 400.879L560.398 400.868L560.398 400.867L560.397 400.866C559.902 400.134 559.147 399.617 558.286 399.418L551.786 397.918C550.66 397.658 549.478 397.971 548.627 398.755C547.777 399.538 547.369 400.691 547.536 401.835ZM556.028 406.778C556.73 407.723 557.684 408.97 558.872 410.437C561.602 413.809 565.58 418.365 570.59 423.118C579.979 432.026 593.279 441.9 608.999 445.66V447.849C584.995 444.26 571.529 432.852 563.97 422.291C559.957 416.685 557.567 411.254 556.183 407.236C556.13 407.081 556.078 406.928 556.028 406.778Z" fill="white"/>
<path d="M921.999 452V442.911C953.999 436.851 976.999 402.515 976.999 402.515L983.499 401C983.499 401 976.999 445.941 921.999 452Z" fill="white"/>
<path fill-rule="evenodd" clip-rule="evenodd" d="M986.963 401.501L983.499 401C986.963 401.501 986.963 401.503 986.962 401.506L986.962 401.511L986.959 401.525L986.953 401.566C986.948 401.599 986.941 401.642 986.933 401.696C986.915 401.803 986.889 401.953 986.854 402.142C986.785 402.519 986.678 403.055 986.523 403.727C986.214 405.071 985.714 406.966 984.937 409.246C983.384 413.8 980.714 419.925 976.23 426.252C967.192 439.002 950.945 452.332 922.382 455.479C921.393 455.588 920.405 455.271 919.664 454.607C918.923 453.943 918.499 452.995 918.499 452V442.911C918.499 441.229 919.695 439.785 921.348 439.472C936.375 436.627 949.528 427.063 959.078 417.913C963.818 413.371 967.591 409.009 970.174 405.786C971.465 404.176 972.455 402.855 973.118 401.944C973.449 401.488 973.698 401.136 973.861 400.901C973.943 400.784 974.003 400.696 974.042 400.64L974.083 400.579L974.091 400.567L974.091 400.567L974.092 400.566C974.586 399.829 975.341 399.308 976.205 399.106L982.705 397.591C983.831 397.329 985.014 397.64 985.866 398.422C986.718 399.204 987.129 400.356 986.963 401.501ZM978.489 406.457C977.786 407.413 976.829 408.676 975.636 410.164C972.907 413.568 968.93 418.168 963.92 422.968C954.532 431.963 941.229 441.939 925.499 445.736V448.015C949.49 444.392 962.955 432.876 970.519 422.204C974.534 416.538 976.926 411.049 978.311 406.987C978.373 406.807 978.432 406.631 978.489 406.457Z" fill="white"/>
<path d="M603.499 791.329C623 734.329 590.333 704.829 571.5 700.329C567.5 714.829 564.572 732.829 560 749.329C549.499 787.223 529.5 873.829 460.5 976.829C413.271 1047.33 388.317 1063.25 364.5 1091.83C347 1112.83 338 1124.48 338 1130.33C338 1132.33 369.528 1123.14 387.5 1112.83C397.86 1106.89 446.399 1083.83 500 1001.33C539.46 940.592 583.999 848.329 603.499 791.329Z" fill="url(#paint6_linear_81_2141)"/>
<path fill-rule="evenodd" clip-rule="evenodd" d="M571.5 700.329C590.333 704.829 623 734.329 603.499 791.329C591.429 826.61 569.766 875.403 545.652 921.866L507.27 895.959C536.418 836.643 549.552 787.969 557.438 758.744C558.357 755.337 559.206 752.193 560 749.329C562.371 740.77 564.3 731.809 566.166 723.141C567.897 715.098 569.574 707.308 571.5 700.329Z" fill="white"/>
<defs>
<linearGradient id="paint0_linear_81_2141" x1="1283.1" y1="27.0492" x2="1638.47" y2="431.847" gradientUnits="userSpaceOnUse">
<stop stop-color="#1D388A"/>
<stop offset="1" stop-color="#175BAC"/>
</linearGradient>
<linearGradient id="paint1_linear_81_2141" x1="1283.1" y1="27.0492" x2="1638.47" y2="431.847" gradientUnits="userSpaceOnUse">
<stop stop-color="#1D388A"/>
<stop offset="1" stop-color="#175BAC"/>
</linearGradient>
<linearGradient id="paint2_linear_81_2141" x1="1078.19" y1="714.402" x2="1264.62" y2="904.741" gradientUnits="userSpaceOnUse">
<stop stop-color="#1D388A"/>
<stop offset="1" stop-color="#175BAC"/>
</linearGradient>
<linearGradient id="paint3_linear_81_2141" x1="244.226" y1="304.773" x2="237.535" y2="842.579" gradientUnits="userSpaceOnUse">
<stop stop-color="#D54125"/>
<stop offset="1" stop-color="#F6911C"/>
</linearGradient>
<linearGradient id="paint4_linear_81_2141" x1="244.226" y1="304.773" x2="237.535" y2="842.579" gradientUnits="userSpaceOnUse">
<stop stop-color="#D54125"/>
<stop offset="1" stop-color="#F6911C"/>
</linearGradient>
<linearGradient id="paint5_linear_81_2141" x1="623.039" y1="68.5001" x2="226.968" y2="222.884" gradientUnits="userSpaceOnUse">
<stop stop-color="#1D388A"/>
<stop offset="1" stop-color="#175BAC"/>
</linearGradient>
<linearGradient id="paint6_linear_81_2141" x1="451.895" y1="859.089" x2="448.001" y2="1139.23" gradientUnits="userSpaceOnUse">
<stop stop-color="#D54125"/>
<stop offset="1" stop-color="#F6911C"/>
</linearGradient>
</defs>
</svg>
